<svg width="14" height="14" viewBox="0 0 14 14" fill="none" xmlns="http://www.w3.org/2000/svg">
<rect width="14" height="14" rx="2.8" fill="#3CA6F0"/>
<path d="M10.5055 4.39119C10.6404 4.51869 10.7191 4.69453 10.7243 4.88006C10.7296 5.06558 10.6609 5.24559 10.5335 5.38052L6.56684 9.58052C6.50255 9.64847 6.4253 9.70284 6.33964 9.74043C6.25398 9.77802 6.16166 9.79805 6.06813 9.79936C5.9746 9.80066 5.88175 9.78321 5.79508 9.74803C5.70841 9.71284 5.62967 9.66065 5.56351 9.59452L3.46351 7.49452C3.33986 7.36182 3.27254 7.18631 3.27574 7.00497C3.27894 6.82362 3.35241 6.65059 3.48066 6.52234C3.60891 6.39409 3.78194 6.32062 3.96329 6.31742C4.14463 6.31422 4.32014 6.38154 4.45284 6.50519L6.04417 8.09559L9.51617 4.41919C9.64368 4.28432 9.81952 4.2056 10.005 4.20035C10.1906 4.1951 10.3706 4.26374 10.5055 4.39119Z" fill="white"/>
</svg>
