<svg width="21" height="20" viewBox="0 0 21 20" fill="none" xmlns="http://www.w3.org/2000/svg">
<path d="M8.49924 13.2333L11.7326 9.99995L8.49924 6.76662C8.42209 6.68947 8.36089 6.59787 8.31914 6.49707C8.27738 6.39627 8.25589 6.28823 8.25589 6.17912C8.25589 6.07001 8.27738 5.96197 8.31914 5.86116C8.36089 5.76036 8.42209 5.66877 8.49924 5.59162C8.57639 5.51447 8.66798 5.45327 8.76879 5.41151C8.86959 5.36976 8.97763 5.34827 9.08674 5.34827C9.19585 5.34827 9.30389 5.36976 9.40469 5.41151C9.5055 5.45327 9.59709 5.51447 9.67424 5.59162L13.4992 9.41662C13.8242 9.74162 13.8242 10.2666 13.4992 10.5916L9.67424 14.4166C9.59715 14.4939 9.50557 14.5552 9.40476 14.597C9.30395 14.6388 9.19588 14.6603 9.08674 14.6603C8.9776 14.6603 8.86953 14.6388 8.76872 14.597C8.66791 14.5552 8.57634 14.4939 8.49924 14.4166C8.18257 14.0916 8.17424 13.5583 8.49924 13.2333Z" fill="#111111"/>
</svg>
