<svg width="21" height="20" viewBox="0 0 21 20" fill="none" xmlns="http://www.w3.org/2000/svg">
<path d="M8.49921 13.2333L11.7325 9.99995L8.49921 6.76662C8.42206 6.68947 8.36086 6.59787 8.3191 6.49707C8.27735 6.39627 8.25586 6.28823 8.25586 6.17912C8.25586 6.07001 8.27735 5.96197 8.3191 5.86116C8.36086 5.76036 8.42206 5.66877 8.49921 5.59162C8.57636 5.51447 8.66795 5.45327 8.76876 5.41151C8.86956 5.36976 8.9776 5.34827 9.08671 5.34827C9.19582 5.34827 9.30386 5.36976 9.40466 5.41151C9.50547 5.45327 9.59706 5.51447 9.67421 5.59162L13.4992 9.41662C13.8242 9.74162 13.8242 10.2666 13.4992 10.5916L9.67421 14.4166C9.59712 14.4939 9.50554 14.5552 9.40473 14.597C9.30392 14.6388 9.19585 14.6603 9.08671 14.6603C8.97757 14.6603 8.8695 14.6388 8.76869 14.597C8.66788 14.5552 8.5763 14.4939 8.49921 14.4166C8.18254 14.0916 8.17421 13.5583 8.49921 13.2333Z" fill="#111111"/>
</svg>
