<svg width="20" height="20" viewBox="0 0 20 20" fill="none" xmlns="http://www.w3.org/2000/svg">
<path d="M7.74164 13.2333L10.975 10L7.74164 6.76667C7.66449 6.68952 7.60329 6.59792 7.56154 6.49712C7.51978 6.39632 7.49829 6.28828 7.49829 6.17917C7.49829 6.07006 7.51978 5.96202 7.56154 5.86121C7.60329 5.76041 7.66449 5.66882 7.74164 5.59167C7.81879 5.51452 7.91039 5.45332 8.01119 5.41156C8.11199 5.36981 8.22003 5.34832 8.32914 5.34832C8.43825 5.34832 8.54629 5.36981 8.64709 5.41156C8.7479 5.45332 8.83949 5.51452 8.91664 5.59167L12.7416 9.41667C13.0666 9.74167 13.0666 10.2667 12.7416 10.5917L8.91664 14.4167C8.83955 14.4939 8.74797 14.5552 8.64716 14.597C8.54635 14.6388 8.43828 14.6604 8.32914 14.6604C8.22 14.6604 8.11193 14.6388 8.01112 14.597C7.91031 14.5552 7.81874 14.4939 7.74164 14.4167C7.42498 14.0917 7.41664 13.5583 7.74164 13.2333Z" fill="white"/>
</svg>
