<svg width="21" height="20" viewBox="0 0 21 20" fill="none" xmlns="http://www.w3.org/2000/svg">
<path d="M8.49923 13.2333L11.7326 9.99995L8.49923 6.76662C8.42208 6.68947 8.36088 6.59787 8.31913 6.49707C8.27737 6.39627 8.25588 6.28823 8.25588 6.17912C8.25588 6.07001 8.27737 5.96197 8.31913 5.86116C8.36088 5.76036 8.42208 5.66877 8.49923 5.59162C8.57638 5.51447 8.66798 5.45327 8.76878 5.41151C8.86958 5.36976 8.97762 5.34827 9.08673 5.34827C9.19584 5.34827 9.30388 5.36976 9.40469 5.41151C9.50549 5.45327 9.59708 5.51447 9.67423 5.59162L13.4992 9.41662C13.8242 9.74162 13.8242 10.2666 13.4992 10.5916L9.67423 14.4166C9.59714 14.4939 9.50556 14.5552 9.40475 14.597C9.30394 14.6388 9.19587 14.6603 9.08673 14.6603C8.97759 14.6603 8.86952 14.6388 8.76871 14.597C8.6679 14.5552 8.57633 14.4939 8.49923 14.4166C8.18257 14.0916 8.17423 13.5583 8.49923 13.2333Z" fill="#111111"/>
</svg>
