<svg width="15" height="16" viewBox="0 0 15 16" fill="none" xmlns="http://www.w3.org/2000/svg">
<path fill-rule="evenodd" clip-rule="evenodd" d="M10.9167 10.0455H10.2584L10.025 9.82048C11.025 8.65382 11.5417 7.06215 11.2584 5.37048C10.8667 3.05382 8.93337 1.20382 6.60003 0.920484C3.07503 0.487151 0.108366 3.45382 0.5417 6.97882C0.825033 9.31215 2.67503 11.2455 4.9917 11.6371C6.68337 11.9205 8.27503 11.4038 9.4417 10.4038L9.6667 10.6371V11.2955L13.2084 14.8371C13.55 15.1788 14.1084 15.1788 14.45 14.8371C14.7917 14.4955 14.7917 13.9371 14.45 13.5955L10.9167 10.0455ZM5.9167 10.0455C3.8417 10.0455 2.1667 8.37049 2.1667 6.29549C2.1667 4.22049 3.8417 2.54549 5.9167 2.54549C7.9917 2.54549 9.6667 4.22049 9.6667 6.29549C9.6667 8.37049 7.9917 10.0455 5.9167 10.0455Z" fill="#969696"/>
</svg>
