<svg width="15" height="16" viewBox="0 0 15 16" fill="none" xmlns="http://www.w3.org/2000/svg">
<path fill-rule="evenodd" clip-rule="evenodd" d="M10.9167 10.0455H10.2583L10.025 9.82048C11.025 8.65382 11.5417 7.06215 11.2583 5.37048C10.8667 3.05382 8.93334 1.20382 6.6 0.920484C3.075 0.487151 0.108336 3.45382 0.541669 6.97882C0.825003 9.31215 2.675 11.2455 4.99167 11.6371C6.68334 11.9205 8.275 11.4038 9.44167 10.4038L9.66667 10.6371V11.2955L13.2083 14.8371C13.55 15.1788 14.1083 15.1788 14.45 14.8371C14.7917 14.4955 14.7917 13.9371 14.45 13.5955L10.9167 10.0455ZM5.91667 10.0455C3.84167 10.0455 2.16667 8.37049 2.16667 6.29549C2.16667 4.22049 3.84167 2.54549 5.91667 2.54549C7.99167 2.54549 9.66667 4.22049 9.66667 6.29549C9.66667 8.37049 7.99167 10.0455 5.91667 10.0455Z" fill="#969696"/>
</svg>
