<svg width="20" height="20" viewBox="0 0 20 20" fill="none" xmlns="http://www.w3.org/2000/svg">
<path fill-rule="evenodd" clip-rule="evenodd" d="M4.00003 11C3.45003 11 3.00003 11.45 3.00003 12C3.00003 12.55 3.45003 13 4.00003 13C4.55003 13 5.00003 12.55 5.00003 12C5.00003 11.45 4.55003 11 4.00003 11ZM4.00003 15C3.45003 15 3.00003 15.45 3.00003 16C3.00003 16.55 3.45003 17 4.00003 17C4.55003 17 5.00003 16.55 5.00003 16C5.00003 15.45 4.55003 15 4.00003 15ZM4.00003 7.00002C3.45003 7.00002 3.00003 7.45002 3.00003 8.00002C3.00003 8.55002 3.45003 9.00002 4.00003 9.00002C4.55003 9.00002 5.00003 8.55002 5.00003 8.00002C5.00003 7.45002 4.55003 7.00002 4.00003 7.00002ZM1 7.49998C0.72 7.49998 0.5 7.71998 0.5 7.99998C0.5 8.27998 0.72 8.49998 1 8.49998C1.28 8.49998 1.5 8.27998 1.5 7.99998C1.5 7.71998 1.28 7.49998 1 7.49998ZM4.00003 2.99998C3.45003 2.99998 3.00003 3.44998 3.00003 3.99998C3.00003 4.54998 3.45003 4.99998 4.00003 4.99998C4.55003 4.99998 5.00003 4.54998 5.00003 3.99998C5.00003 3.44998 4.55003 2.99998 4.00003 2.99998ZM19 8.49998C19.28 8.49998 19.5 8.27998 19.5 7.99998C19.5 7.71998 19.28 7.49998 19 7.49998C18.72 7.49998 18.5 7.71998 18.5 7.99998C18.5 8.27998 18.72 8.49998 19 8.49998ZM12 4.99998C12.55 4.99998 13 4.54998 13 3.99998C13 3.44998 12.55 2.99998 12 2.99998C11.45 2.99998 11 3.44998 11 3.99998C11 4.54998 11.45 4.99998 12 4.99998ZM12 1.5C12.28 1.5 12.5 1.28 12.5 1C12.5 0.72 12.28 0.5 12 0.5C11.72 0.5 11.5 0.72 11.5 1C11.5 1.28 11.72 1.5 12 1.5ZM1 11.5C0.72 11.5 0.5 11.72 0.5 12C0.5 12.28 0.72 12.5 1 12.5C1.28 12.5 1.5 12.28 1.5 12C1.5 11.72 1.28 11.5 1 11.5ZM8.00003 18.5C7.72003 18.5 7.50003 18.72 7.50003 19C7.50003 19.28 7.72003 19.5 8.00003 19.5C8.28003 19.5 8.50003 19.28 8.50003 19C8.50003 18.72 8.28003 18.5 8.00003 18.5ZM8.00003 1.5C8.28003 1.5 8.50003 1.28 8.50003 1C8.50003 0.72 8.28003 0.5 8.00003 0.5C7.72003 0.5 7.50003 0.72 7.50003 1C7.50003 1.28 7.72003 1.5 8.00003 1.5ZM7.99997 4.99998C8.54997 4.99998 8.99997 4.54998 8.99997 3.99998C8.99997 3.44998 8.54997 2.99998 7.99997 2.99998C7.44997 2.99998 6.99997 3.44998 6.99997 3.99998C6.99997 4.54998 7.44997 4.99998 7.99997 4.99998ZM8 10.5C7.17 10.5 6.5 11.17 6.5 12C6.5 12.83 7.17 13.5 8 13.5C8.83 13.5 9.5 12.83 9.5 12C9.5 11.17 8.83 10.5 8 10.5ZM16 11C15.45 11 15 11.45 15 12C15 12.55 15.45 13 16 13C16.55 13 17 12.55 17 12C17 11.45 16.55 11 16 11ZM16 15C15.45 15 15 15.45 15 16C15 16.55 15.45 17 16 17C16.55 17 17 16.55 17 16C17 15.45 16.55 15 16 15ZM16 7.00002C15.45 7.00002 15 7.45002 15 8.00002C15 8.55002 15.45 9.00002 16 9.00002C16.55 9.00002 17 8.55002 17 8.00002C17 7.45002 16.55 7.00002 16 7.00002ZM16 2.99998C15.45 2.99998 15 3.44998 15 3.99998C15 4.54998 15.45 4.99998 16 4.99998C16.55 4.99998 17 4.54998 17 3.99998C17 3.44998 16.55 2.99998 16 2.99998ZM19 11.5C18.72 11.5 18.5 11.72 18.5 12C18.5 12.28 18.72 12.5 19 12.5C19.28 12.5 19.5 12.28 19.5 12C19.5 11.72 19.28 11.5 19 11.5ZM12 15C11.45 15 11 15.45 11 16C11 16.55 11.45 17 12 17C12.55 17 13 16.55 13 16C13 15.45 12.55 15 12 15ZM12 18.5C11.72 18.5 11.5 18.72 11.5 19C11.5 19.28 11.72 19.5 12 19.5C12.28 19.5 12.5 19.28 12.5 19C12.5 18.72 12.28 18.5 12 18.5ZM8 6.5C7.17 6.5 6.5 7.17 6.5 8C6.5 8.83 7.17 9.5 8 9.5C8.83 9.5 9.5 8.83 9.5 8C9.5 7.17 8.83 6.5 8 6.5ZM7.99997 15C7.44997 15 6.99997 15.45 6.99997 16C6.99997 16.55 7.44997 17 7.99997 17C8.54997 17 8.99997 16.55 8.99997 16C8.99997 15.45 8.54997 15 7.99997 15ZM12 10.5C11.17 10.5 10.5 11.17 10.5 12C10.5 12.83 11.17 13.5 12 13.5C12.83 13.5 13.5 12.83 13.5 12C13.5 11.17 12.83 10.5 12 10.5ZM12 6.5C11.17 6.5 10.5 7.17 10.5 8C10.5 8.83 11.17 9.5 12 9.5C12.83 9.5 13.5 8.83 13.5 8C13.5 7.17 12.83 6.5 12 6.5Z" fill="#969696"/>
</svg>
