<svg width="18" height="22" viewBox="0 0 18 22" fill="none" xmlns="http://www.w3.org/2000/svg">
<path d="M11.0001 18.3788H11.7501V17.6288H11.0001V18.3788ZM7.00005 18.3788V17.6288H6.25005V18.3788H7.00005ZM15.0001 14.3788H14.2501V14.6894L14.4697 14.9091L15.0001 14.3788ZM10.5001 3.05878H9.75005V3.65137L10.3266 3.78844L10.5001 3.05878ZM7.50005 3.05878L7.67296 3.78858L8.25005 3.65185V3.05878H7.50005ZM3.00005 14.3788L3.53038 14.9091L3.75005 14.6894V14.3788H3.00005ZM9.00005 21.1288C10.5143 21.1288 11.7501 19.893 11.7501 18.3788H10.2501C10.2501 19.0646 9.68584 19.6288 9.00005 19.6288V21.1288ZM11.0001 17.6288H7.00005V19.1288H11.0001V17.6288ZM6.25005 18.3788C6.25005 19.8906 7.4734 21.1288 9.00005 21.1288V19.6288C8.30671 19.6288 7.75005 19.067 7.75005 18.3788H6.25005ZM15.7501 14.3788V9.37878H14.2501V14.3788H15.7501ZM15.7501 9.37878C15.7501 6.04656 13.9479 3.10764 10.6735 2.32912L10.3266 3.78844C12.7722 4.36993 14.2501 6.57101 14.2501 9.37878H15.7501ZM11.2501 3.05878V2.37878H9.75005V3.05878H11.2501ZM11.2501 2.37878C11.2501 1.13457 10.2443 0.128784 9.00005 0.128784V1.62878C9.41584 1.62878 9.75005 1.963 9.75005 2.37878H11.2501ZM9.00005 0.128784C7.75584 0.128784 6.75005 1.13457 6.75005 2.37878H8.25005C8.25005 1.963 8.58427 1.62878 9.00005 1.62878V0.128784ZM6.75005 2.37878V3.05878H8.25005V2.37878H6.75005ZM7.32714 2.32899C4.04177 3.1074 2.25005 6.03723 2.25005 9.37878H3.75005C3.75005 6.56034 5.21833 4.37017 7.67296 3.78858L7.32714 2.32899ZM2.25005 9.37878V14.3788H3.75005V9.37878H2.25005ZM2.46972 13.8485L1.17972 15.1385L2.24038 16.1991L3.53038 14.9091L2.46972 13.8485ZM1.17972 15.1385C0.086124 16.2321 0.839344 18.1288 2.41005 18.1288V16.6288C2.20076 16.6288 2.07398 16.3655 2.24038 16.1991L1.17972 15.1385ZM2.41005 18.1288H15.5801V16.6288H2.41005V18.1288ZM15.5801 18.1288C17.1348 18.1288 17.9253 16.2434 16.8204 15.1385L15.7597 16.1991C15.9148 16.3542 15.8053 16.6288 15.5801 16.6288V18.1288ZM16.8204 15.1385L15.5304 13.8485L14.4697 14.9091L15.7597 16.1991L16.8204 15.1385Z" fill="#111111"/>
</svg>
