<svg width="19" height="13" viewBox="0 0 19 13" fill="none" xmlns="http://www.w3.org/2000/svg">
<g clip-path="url(#clip0_3_1786)">
<path d="M8.87842 8.9161C9.71696 8.35905 10.3539 7.54684 10.695 6.59966C11.036 5.65248 11.0631 4.62067 10.7721 3.65692C10.4812 2.69316 9.88773 1.84868 9.07954 1.24844C8.27134 0.648199 7.29138 0.324097 6.28467 0.324097C5.27795 0.324097 4.29799 0.648199 3.4898 1.24844C2.6816 1.84868 2.08812 2.69316 1.79718 3.65692C1.50625 4.62067 1.53331 5.65248 1.87437 6.59966C2.21543 7.54684 2.85237 8.35905 3.69092 8.9161C2.26042 9.44213 1.02535 10.3937 0.151853 11.6427C0.0949203 11.7086 0.0524103 11.7858 0.0270519 11.8691C0.00169355 11.9525 -0.00595288 12.0402 0.00460356 12.1267C0.01516 12.2132 0.043686 12.2966 0.0883503 12.3714C0.133015 12.4462 0.19283 12.5109 0.263957 12.5612C0.335084 12.6115 0.41595 12.6464 0.501365 12.6637C0.586779 12.6809 0.674854 12.6801 0.759935 12.6613C0.845016 12.6425 0.925224 12.6061 0.995408 12.5544C1.06559 12.5028 1.1242 12.437 1.16748 12.3614C1.74503 11.5409 2.51142 10.8713 3.40201 10.4091C4.2926 9.9469 5.28128 9.70562 6.28467 9.70562C7.28805 9.70562 8.27673 9.9469 9.16732 10.4091C10.0579 10.8713 10.8243 11.5409 11.4019 12.3614C11.4451 12.437 11.5037 12.5028 11.5739 12.5544C11.6441 12.6061 11.7243 12.6425 11.8094 12.6613C11.8945 12.6801 11.9826 12.6809 12.068 12.6637C12.1534 12.6464 12.2342 12.6115 12.3054 12.5612C12.3765 12.5109 12.4363 12.4462 12.481 12.3714C12.5256 12.2966 12.5542 12.2132 12.5647 12.1267C12.5753 12.0402 12.5676 11.9525 12.5423 11.8691C12.5169 11.7858 12.4744 11.7086 12.4175 11.6427C11.544 10.3937 10.3089 9.44213 8.87842 8.9161ZM2.84717 5.01766C2.84717 4.33779 3.04877 3.67318 3.42649 3.10789C3.80421 2.54259 4.34107 2.102 4.96919 1.84182C5.59731 1.58165 6.28848 1.51357 6.95529 1.64621C7.6221 1.77885 8.2346 2.10624 8.71535 2.58698C9.19609 3.06772 9.52348 3.68023 9.65612 4.34704C9.78875 5.01385 9.72068 5.70501 9.4605 6.33313C9.20033 6.96125 8.75973 7.49812 8.19444 7.87583C7.62914 8.25355 6.96454 8.45516 6.28467 8.45516C5.37298 8.45516 4.49864 8.09299 3.85399 7.44834C3.20933 6.80368 2.84717 5.92934 2.84717 5.01766ZM18.6362 12.5098C18.5698 12.5577 18.4945 12.5918 18.4147 12.6103C18.3349 12.6287 18.2523 12.6311 18.1715 12.6173C18.0908 12.6035 18.0137 12.5737 17.9446 12.5298C17.8755 12.4859 17.8158 12.4286 17.769 12.3614C17.1911 11.5413 16.4246 10.872 15.5341 10.4097C14.6436 9.94749 13.6552 9.70586 12.6519 9.70516C12.4861 9.70516 12.3271 9.63931 12.2099 9.5221C12.0927 9.40489 12.0269 9.24592 12.0269 9.08016C12.0269 8.9144 12.0927 8.75543 12.2099 8.63822C12.3271 8.52101 12.4861 8.45516 12.6519 8.45516C13.5635 8.45516 14.4379 8.09299 15.0825 7.44834C15.7272 6.80368 16.0894 5.92934 16.0894 5.01766C16.0894 4.10598 15.7272 3.23164 15.0825 2.58698C14.4379 1.94232 13.5635 1.58016 12.6519 1.58016C12.3379 1.58225 12.0255 1.62425 11.7222 1.70516C11.6432 1.72782 11.5605 1.73467 11.4788 1.72533C11.3972 1.71599 11.3182 1.69064 11.2463 1.65073C11.1745 1.61082 11.1112 1.55713 11.0602 1.49274C11.0091 1.42835 10.9712 1.35451 10.9487 1.27547C10.9051 1.11597 10.9256 0.945728 11.0059 0.801178C11.0862 0.656627 11.2199 0.549252 11.3784 0.502034C11.7937 0.390209 12.2217 0.33244 12.6519 0.330159C13.6596 0.326532 14.6416 0.648315 15.4518 1.24764C16.2619 1.84697 16.857 2.69182 17.1484 3.65652C17.4399 4.62122 17.4121 5.65422 17.0692 6.60187C16.7264 7.54951 16.0868 8.36117 15.2456 8.9161C16.677 9.44427 17.914 10.3952 18.7925 11.6427C18.8862 11.7785 18.9224 11.946 18.8932 12.1085C18.8639 12.2709 18.7715 12.4152 18.6362 12.5098Z" fill="#111111"/>
</g>
<defs>
<clipPath id="clip0_3_1786">
<rect width="18.9031" height="12.3519" fill="white" transform="translate(0 0.324097)"/>
</clipPath>
</defs>
</svg>
